<?xml version="1.0" encoding="UTF-8" standalone="no"?>
<svg
   xmlns:dc="http://purl.org/dc/elements/1.1/"
   xmlns:cc="http://creativecommons.org/ns#"
   xmlns:rdf="http://www.w3.org/1999/02/22-rdf-syntax-ns#"
   xmlns:svg="http://www.w3.org/2000/svg"
   xmlns="http://www.w3.org/2000/svg"
   version="1.1"
   id="svg2"
   xml:space="preserve"
   width="2666.6667"
   height="1333.3333"
   viewBox="0 0 2666.6667 1333.3333"><metadata
     id="metadata8"><rdf:RDF><cc:Work
         rdf:about=""><dc:format>image/svg+xml</dc:format><dc:type
           rdf:resource="http://purl.org/dc/dcmitype/StillImage" /></cc:Work></rdf:RDF></metadata><defs
     id="defs6"><clipPath
       clipPathUnits="userSpaceOnUse"
       id="clipPath24"><path
         d="M 0,1000 H 2000 V 0 H 0 Z"
         id="path22" /></clipPath></defs><g
     id="g10"
     transform="matrix(1.3333333,0,0,-1.3333333,0,1333.3333)"><text
       transform="matrix(1,0,0,-1,586.1187,556.4321)"
       style="font-variant:normal;font-weight:normal;font-stretch:normal;font-size:136.393px;font-family:Baloo;-inkscape-font-specification:Baloo-Regular;writing-mode:lr-tb;fill:#684317;fill-opacity:1;fill-rule:nonzero;stroke:none"
       id="text16"><tspan
         x="0 93.293015 173.2195 248.23581 346.84818 431.5484 530.16077 625.49969 702.97107 788.76245 818.76898 912.33478 956.6626 1034.5432 1128.9274"
         y="0"
         id="tspan12">UTTORONER DISHA</tspan><tspan
         x="0 74.470741 173.0831 266.37613 361.71503 454.32608 537.79877 616.36133 660.68915 759.30151"
         y="127.66413"
         id="tspan14">FOUNDATION</tspan></text><g
       id="g18"><g
         id="g20"
         clip-path="url(#clipPath24)"><g
           id="g26"
           transform="translate(394.2556,454.3005)"><path
             d="m 0,0 c -24.945,-24.945 -65.39,-24.945 -90.335,0 -24.946,24.945 -24.946,65.39 0,90.335 24.945,24.946 65.39,24.946 90.335,0 C 24.945,65.39 24.945,24.945 0,0"
             style="fill:#ffdb69;fill-opacity:1;fill-rule:nonzero;stroke:none"
             id="path28" /></g><g
           id="g30"
           transform="translate(353.4191,594.1346)"><path
             d="m 0,0 c 24.945,24.945 65.39,24.945 90.335,0 24.946,-24.945 24.946,-65.39 0,-90.335 z"
             style="fill:#ff7469;fill-opacity:1;fill-rule:nonzero;stroke:none"
             id="path32" /></g><g
           id="g34"
           transform="translate(489.4713,607.1642)"><path
             d="m 0,0 c -9.026,-9.026 -23.661,-9.026 -32.687,0 -9.027,9.026 -9.027,23.661 0,32.687 9.026,9.027 23.661,9.027 32.687,0 C 9.026,23.661 9.026,9.026 0,0"
             style="fill:#684317;fill-opacity:1;fill-rule:nonzero;stroke:none"
             id="path36" /></g><g
           id="g38"
           transform="translate(344.308,404.353)"><path
             d="m 0,0 c -24.945,-24.945 -65.39,-24.945 -90.335,0 -24.946,24.945 -24.946,65.39 0,90.335 z"
             style="fill:#ff7469;fill-opacity:1;fill-rule:nonzero;stroke:none"
             id="path40" /></g><g
           id="g42"
           transform="translate(208.2559,391.3234)"><path
             d="m 0,0 c 9.026,9.026 23.661,9.026 32.687,0 9.027,-9.026 9.027,-23.661 0,-32.687 C 23.661,-41.714 9.026,-41.714 0,-32.687 -9.026,-23.661 -9.026,-9.026 0,0"
             style="fill:#684317;fill-opacity:1;fill-rule:nonzero;stroke:none"
             id="path44" /></g><g
           id="g46"
           transform="translate(443.7544,494.6882)"><path
             d="m 0,0 c 24.945,-24.945 24.945,-65.39 0,-90.335 -24.945,-24.946 -65.39,-24.946 -90.335,0 z"
             style="fill:#ff7469;fill-opacity:1;fill-rule:nonzero;stroke:none"
             id="path48" /></g><g
           id="g50"
           transform="translate(488.6674,456.7722)"><path
             d="M 0,0 -42.429,42.429 0,84.858 C 23.435,61.423 23.435,23.435 0,0"
             style="fill:#ff7469;fill-opacity:1;fill-rule:nonzero;stroke:none"
             id="path52" /></g><g
           id="g54"
           transform="translate(306.392,639.0477)"><path
             d="M 0,0 42.429,-42.429 84.858,0 C 61.423,23.435 23.435,23.435 0,0"
             style="fill:#ff7469;fill-opacity:1;fill-rule:nonzero;stroke:none"
             id="path56" /></g><g
           id="g58"
           transform="translate(389.9277,358.0324)"><path
             d="M 0,0 -42.429,42.429 -84.858,0 C -61.423,-23.435 -23.435,-23.435 0,0"
             style="fill:#ff7469;fill-opacity:1;fill-rule:nonzero;stroke:none"
             id="path60" /></g><g
           id="g62"
           transform="translate(207.6522,540.3079)"><path
             d="M 0,0 42.429,-42.429 0,-84.858 C -23.435,-61.423 -23.435,-23.435 0,0"
             style="fill:#ff7469;fill-opacity:1;fill-rule:nonzero;stroke:none"
             id="path64" /></g><g
           id="g66"
           transform="translate(456.7839,358.6361)"><path
             d="m 0,0 c -9.026,9.026 -9.026,23.661 0,32.687 9.026,9.027 23.661,9.027 32.687,0 C 41.714,23.661 41.714,9.026 32.687,0 23.661,-9.026 9.026,-9.026 0,0"
             style="fill:#684317;fill-opacity:1;fill-rule:nonzero;stroke:none"
             id="path68" /></g><g
           id="g70"
           transform="translate(253.9727,503.7993)"><path
             d="m 0,0 c -24.945,24.945 -24.945,65.39 0,90.335 24.945,24.946 65.39,24.946 90.335,0 z"
             style="fill:#ff7469;fill-opacity:1;fill-rule:nonzero;stroke:none"
             id="path72" /></g><g
           id="g74"
           transform="translate(240.9432,639.8515)"><path
             d="m 0,0 c 9.026,-9.026 9.026,-23.661 0,-32.687 -9.026,-9.027 -23.661,-9.027 -32.687,0 -9.027,9.026 -9.027,23.661 0,32.687 C -23.661,9.026 -9.026,9.026 0,0"
             style="fill:#684317;fill-opacity:1;fill-rule:nonzero;stroke:none"
             id="path76" /></g></g></g><text
       transform="matrix(1,0,0,-1,590.1187,347.6289)"
       style="font-variant:normal;font-weight:600;font-stretch:normal;font-size:51.5214px;font-family:'Montserrat SemiBold';-inkscape-font-specification:Montserrat-SemiBold;writing-mode:lr-tb;fill:#684317;fill-opacity:1;fill-rule:nonzero;stroke:none"
       id="text80"><tspan
         x="0 59.19809 94.747856 109.99819 149.61815 188.31071 223.86049 239.11082 271.15714 313.91989 349.46967 364.72 400.83649 440.45645 478.62866 510.67496 553.43774 588.98749 627.68005 661.11743 676.3678 693.83356 736.59631 751.84662 785.38708 829.79852 871.47931 910.17188 925.42224 958.34442 990.39075 1029.0833 1070.7642 1111.5691 1152.374 1184.2657"
         y="0"
         id="tspan78">WE ARE THE PARTNERS IN YOUR STRUGGLE</tspan></text><text
       transform="matrix(1,0,0,-1,65.6382,50.8672)"
       style="font-variant:normal;font-weight:600;font-stretch:normal;font-size:33.3226px;font-family:'Montserrat SemiBold';-inkscape-font-specification:Montserrat-SemiBold;writing-mode:lr-tb;fill:#000000;fill-opacity:1;fill-rule:nonzero;stroke:none"
       id="text84"><tspan
         x="0 20.62669 30.923372 54.71571 78.208145 93.00338 102.86687 128.89182 149.95171 169.81197 190.93849 214.73083 229.05956 251.21909 274.57822 298.23727"
         y="0"
         id="tspan82">Light Background</tspan></text></g></svg>
